<svg width="108" height="135" viewBox="0 0 108 135" fill="none" xmlns="http://www.w3.org/2000/svg">
<path d="M11 39.5L20 115.5L27 123.5L38 126L79.5 123.5L85 115.5L95 40.5L98.5 39.5V29L88.5 21.5H22L9 26L6 36L11 39.5Z" fill="#FF0000"/>
<path d="M70.31 112.5C70.39 112.51 70.48 112.51 70.56 112.51C72.2 112.51 73.59 111.25 73.73 109.58L78.08 54.62C78.22 52.87 76.91 51.34 75.16 51.2C73.41 51.06 71.88 52.37 71.74 54.12L67.4 109.08C67.25 110.83 68.56 112.37 70.31 112.5Z" fill="black"/>
<path d="M56.36 109.33C56.36 111.09 54.94 112.51 53.18 112.51C51.42 112.51 50 111.09 50 109.33V54.37C50 52.61 51.42 51.19 53.18 51.19C54.94 51.19 56.36 52.61 56.36 54.37V109.33Z" fill="black"/>
<path d="M36.05 112.5C35.97 112.51 35.88 112.51 35.8 112.51C34.16 112.51 32.76 111.25 32.63 109.58L28.28 54.62C28.14 52.87 29.45 51.34 31.2 51.2C32.95 51.07 34.48 52.37 34.62 54.12L38.97 109.08C39.11 110.83 37.8 112.36 36.05 112.5Z" fill="black"/>
<path fill-rule="evenodd" clip-rule="evenodd" d="M86.64 18.28C95.74 18.27 103.16 25.68 103.17 34.79L103.16 38.82C103.17 41.12 101.34 42.98 99.06 43.05L90.26 114.49C89.22 123.28 81.74 129.92 72.87 129.92H33.47C24.6 129.92 17.12 123.28 16.08 114.47L7.29 43.12H6.87C6.49 43.12 6.11 43.07 5.75 42.97C5.04 42.78 4.39 42.4 3.87 41.88C3.08 41.08 2.63 40 2.63 38.88V34.87C2.63 30.45 4.34 26.3 7.46 23.18C10.58 20.05 14.73 18.33 19.14 18.33L34.46 18.32V16.6C34.45 10.04 39.78 4.69999 46.34 4.69999L59.42 4.68999C65.98 4.67999 71.32 10.01 71.32 16.57V18.29L86.64 18.28ZM59.43 13.16L46.35 13.17C44.46 13.17 42.93 14.71 42.93 16.58V18.3L62.84 18.29V16.57C62.84 15 61.78 13.68 60.33 13.28C60.04 13.2 59.74 13.16 59.43 13.16ZM81.85 113.46L90.49 43.32L90.64 43.06L15.74 43.11L15.86 43.32L24.5 113.44C25.04 118 28.9 121.43 33.48 121.43H72.88C77.45 121.43 81.31 118.01 81.85 113.46ZM13.46 29.16C11.99 30.63 11.17 32.57 11.11 34.63L94.69 34.58C94.57 30.24 91 26.76 86.64 26.76L19.15 26.8C17 26.8 14.98 27.64 13.46 29.16Z" fill="black"/>
</svg>
