<svg width="108" height="158" viewBox="0 0 108 158" fill="none" xmlns="http://www.w3.org/2000/svg">
<path d="M15.5 63L24.5 140.5L36.5 150H80L89.5 140.5L98.5 63H15.5Z" fill="#FF0000"/>
<path d="M10 50.5L98.5 26.5L94 17L86.5 14L15.5 32L8 42L10 50.5Z" fill="#FF0000"/>
<path fill-rule="evenodd" clip-rule="evenodd" d="M102.62 25.22C103.24 27.48 101.91 29.81 99.65 30.43L10.87 54.79C10.5 54.89 10.13 54.94 9.75001 54.94C9.02001 54.94 8.29001 54.75 7.65001 54.38C6.67001 53.83 5.96001 52.9 5.66 51.82L4.60001 47.95C3.44001 43.69 4 39.23 6.18 35.4C8.37 31.56 11.91 28.81 16.17 27.64L30.94 23.59L30.48 21.93C28.74 15.61 32.48 9.04999 38.8 7.31999L51.42 3.85999C57.74 2.11999 64.3 5.85999 66.03 12.18L66.49 13.84L81.26 9.78999C90.04 7.37999 99.15 12.56 101.56 21.35L102.62 25.22ZM53.65 12.03L41.04 15.49C39.22 15.99 38.15 17.87 38.64 19.68L39.1 21.34L58.3 16.08L57.84 14.42C57.43 12.91 56.05 11.91 54.55 11.91C54.25 11.91 53.95 11.95 53.65 12.03ZM18.4 35.81C16.33 36.38 14.6 37.72 13.54 39.59C12.51 41.39 12.22 43.48 12.72 45.49L93.32 23.38C92.05 19.23 87.7 16.81 83.49 17.96L18.4 35.81Z" fill="black"/>
<path d="M74.09 135.99C74.17 136 74.26 136 74.34 136C75.98 136 77.37 134.74 77.51 133.07L81.86 78.11C82 76.36 80.69 74.83 78.94 74.69C77.19 74.55 75.66 75.86 75.52 77.61L71.18 132.57C71.04 134.32 72.34 135.85 74.09 135.99Z" fill="black"/>
<path d="M60.15 132.82C60.15 134.58 58.73 136 56.97 136C55.21 136 53.79 134.58 53.79 132.82V77.86C53.79 76.1 55.21 74.68 56.97 74.68C58.73 74.68 60.15 76.1 60.15 77.86V132.82Z" fill="black"/>
<path d="M39.84 135.99C39.76 136 39.67 136 39.59 136C37.94 136 36.55 134.74 36.42 133.07L32.07 78.11C31.93 76.36 33.24 74.83 34.99 74.69C36.74 74.56 38.27 75.86 38.41 77.61L42.76 132.57C42.9 134.32 41.59 135.85 39.84 135.99Z" fill="black"/>
<path fill-rule="evenodd" clip-rule="evenodd" d="M102.25 59.76C101.45 58.85 100.29 58.33 99.08 58.33H14.86C13.65 58.33 12.49 58.85 11.69 59.76C10.88 60.67 10.51 61.88 10.66 63.09L19.88 137.95C20.92 146.76 28.4 153.4 37.27 153.4H76.67C85.54 153.4 93.02 146.76 94.06 137.97L103.28 63.09C103.43 61.88 103.05 60.67 102.25 59.76ZM85.64 136.95C85.1 141.5 81.24 144.92 76.67 144.92H37.27C32.69 144.92 28.83 141.49 28.29 136.93L19.65 66.81H94.28L85.64 136.95Z" fill="black"/>
</svg>
